<svg preserveAspectRatio="none" overflow="visible" style="display: block;" width="89" height="29.074" viewBox="0 0 89 29.074" fill="none" xmlns="http://www.w3.org/2000/svg">
<g id="image 6 [Vectorized]">
<path id="Vector" d="M3.64505 0.0984108C4.2595 0.0377246 4.79748 0.142614 5.15213 0.724064C5.9842 2.08828 6.71715 3.54693 7.56917 4.89921C8.37625 6.18016 8.27721 7.27702 8.4271 8.72081C8.74086 12.9181 8.715 17.1589 8.34236 21.3525C8.29316 21.9058 8.22372 22.6118 8.08409 23.1587C7.34536 24.7558 6.23608 26.3989 5.39675 27.9417C4.6748 29.2687 3.89469 29.2014 2.735 28.4954C2.13625 28.1917 1.52001 27.8182 0.946142 27.4697C-0.43972 26.6281 0.15229 25.6415 0.767494 24.5887L1.79929 22.8248C2.00741 22.4686 2.24855 22.1063 2.40744 21.7251C3.10993 20.0401 3.06886 9.4262 2.48238 7.53838C2.35295 7.12174 2.09918 6.74721 1.8801 6.37255C1.39096 5.53614 0.575645 4.31516 0.223636 3.45516C0.0784002 3.10033 0.0265106 2.76121 0.179622 2.39984C0.271642 2.18639 0.410205 1.99621 0.585179 1.84321C0.99733 1.47718 3.08155 0.325887 3.64505 0.0984108ZM1.11371 26.2708C1.53741 26.5513 2.22039 26.9445 2.67936 27.1803C3.00459 27.3795 3.73029 27.8258 4.06787 27.9477C4.4862 27.3894 6.84204 23.3022 7.00175 22.7685C7.24593 21.9524 7.2737 20.847 7.33407 19.9912C7.51619 17.2904 7.56043 14.5819 7.4667 11.8766C7.41464 10.1233 7.34297 8.35328 7.09166 6.6151C7.05451 6.35808 6.97546 6.15509 6.86164 5.92354C6.59847 5.38777 4.27055 1.28709 4.05326 1.13461C4.04857 1.13132 4.04335 1.12889 4.03839 1.12603C3.66611 1.28299 1.44292 2.56061 1.12902 2.82182C1.61266 3.86745 2.28541 4.8667 2.8657 5.864C3.10848 6.2812 3.40755 6.72192 3.55312 7.18424C4.2125 9.27835 4.20108 20.1165 3.52394 21.9667C3.35481 22.4289 3.07726 22.8554 2.83064 23.2794C2.2606 24.2597 1.6003 25.2487 1.11371 26.2708Z" fill="white"/>
<path id="Vector_2" d="M14.1716 0.0684234C14.2448 0.0739466 14.3175 0.0850842 14.389 0.101739C14.8877 0.222875 16.8159 1.41115 17.3404 1.75037C17.5109 1.86069 17.7248 2.11758 17.8421 2.29533C18.2574 2.92511 17.7453 3.72726 17.4068 4.30987L16.2866 6.23095C15.6508 7.32295 15.4953 7.50682 15.3958 8.80125C15.2854 10.2391 15.199 11.6532 15.1517 13.0969C15.1023 15.2388 15.1634 17.3819 15.3347 19.5176C15.3838 20.1479 15.389 20.8503 15.5606 21.4587C15.932 22.7753 18.259 25.3434 17.9462 26.5618C17.7507 27.3233 16.1996 27.9958 15.5368 28.3899C14.2719 29.1236 13.5104 29.4311 12.6776 27.9224C12.4296 27.4731 12.1331 26.9777 11.8738 26.5303L10.7806 24.6427C10.6186 24.3632 10.0759 23.4576 10.0202 23.2148C9.72782 21.9405 9.59745 19.9933 9.53787 18.7063C9.36282 15.2097 9.41175 11.7056 9.68436 8.21529C9.71617 7.83633 9.85949 6.23695 9.98778 5.93339C10.4889 4.75361 11.2491 3.66619 11.8717 2.54342C12.1359 2.06703 12.419 1.59313 12.6788 1.11209C13.0578 0.410488 13.3636 0.0976187 14.1716 0.0684234ZM15.491 27.1164C15.9404 26.8586 16.5056 26.5472 16.9386 26.273C16.4858 25.2132 15.7795 24.1879 15.1999 23.1902C14.9659 22.7874 14.6809 22.3645 14.5407 21.9183C13.9017 19.8855 13.8115 8.90976 14.6072 6.95676C14.7743 6.54664 15.0328 6.15538 15.2552 5.7729C15.8143 4.8118 16.4428 3.85187 16.9197 2.84777C16.7023 2.60098 14.3473 1.23027 14.0165 1.1076C13.6371 1.6201 11.2051 5.81527 11.0661 6.27972C10.835 7.05242 10.7766 8.49625 10.7243 9.35C10.5481 12.0104 10.5115 14.6782 10.6149 17.3423C10.6666 19.032 10.7366 20.7418 10.9845 22.4163C11.0216 22.6674 11.0854 22.9058 11.1943 23.1357C11.4482 23.6715 13.8316 27.7569 13.9891 27.8769C14.0002 27.8853 14.0117 27.893 14.0232 27.9007C14.3279 27.8528 15.1599 27.2917 15.491 27.1164Z" fill="white"/>
<path id="Vector_3" d="M50.4043 6.05209L50.4569 6.05175L53.677 6.04992C56.0567 6.05192 58.6685 6.04618 60.4411 7.86846C62.5288 10.0148 62.3884 13.604 60.3112 15.6779C58.2843 17.3755 56.6134 17.2742 54.1659 17.2724L50.4021 17.2675C50.3882 16.8326 50.3926 16.3776 50.3965 15.9412C50.4243 12.6488 50.353 9.3432 50.4043 6.05209ZM53.4584 14.8447C54.9125 14.8368 56.7968 15.054 57.8845 14.0056C58.5529 13.3276 58.7702 12.7144 58.7663 11.7725C58.7519 8.24221 55.8977 8.58206 53.4571 8.59535L53.4584 14.8447Z" fill="white"/>
<path id="Vector_4" d="M20.6006 6.04992L24.2132 6.0507C25.5157 6.05096 26.7575 6.03584 28.0855 6.28221C30.1074 6.6573 31.4229 8.43256 30.3283 10.3933C30.0424 10.9055 29.6367 11.1625 29.1473 11.466C29.2053 11.488 29.263 11.5105 29.3205 11.5336C31.0203 12.2144 31.669 13.7614 30.9831 15.4513C29.6898 17.6516 26.7309 17.2697 24.5337 17.2698L20.5978 17.2647C20.5715 15.748 20.5936 14.1641 20.5932 12.643L20.6006 6.04992ZM23.7368 15.0508C24.6413 15.0433 27.0516 15.1906 27.6728 14.7954C27.9432 14.5682 28.0861 14.4329 28.1226 14.0524C28.2306 12.9278 27.267 12.7561 26.3672 12.6974C25.5457 12.6437 24.6861 12.6629 23.8396 12.6677C23.795 12.6995 23.7608 12.7089 23.7581 12.7492C23.7067 13.487 23.7769 14.318 23.7368 15.0508ZM23.7382 10.5573C24.6641 10.555 26.556 10.7111 27.2389 10.2335C27.6234 9.85523 27.7606 9.1704 27.3567 8.78353C26.7895 8.24034 25.3628 8.26907 24.6363 8.26915L23.7528 8.27367C23.7219 9.0296 23.7712 9.80178 23.7382 10.5573Z" fill="white"/>
<path id="Vector_5" d="M33.0348 6.05498C33.7517 6.02564 34.5949 6.03616 35.3172 6.04929C37.837 6.09509 41.0574 5.71039 42.5746 8.22871C43.438 9.66172 43.2201 11.8042 41.9987 12.9733C41.6398 13.3199 41.301 13.5068 40.8714 13.7531C41.1396 14.2508 41.5558 14.8159 41.8839 15.2884C42.3383 15.9433 42.7892 16.6006 43.2368 17.2603L42.5555 17.2698L39.9773 17.2656C39.7217 16.9799 39.4329 16.5163 39.2181 16.1909C38.7914 15.5443 38.4044 14.9417 37.9191 14.3359L36.098 14.3393L36.0981 17.2689L33.0341 17.2666C32.9993 15.8599 33.0291 14.3246 33.0288 12.9096L33.0348 6.05498ZM36.0998 11.9103C37.0402 11.9108 38.8161 12.0811 39.4727 11.4454C39.8917 10.9875 39.9359 10.7323 39.9368 10.1163C39.9397 8.23753 37.4486 8.46856 36.0976 8.48503L36.0998 11.9103Z" fill="white"/>
<path id="Vector_6" d="M76.1322 6.05371C78.9856 6.02402 81.9798 6.03498 84.8331 6.05944L84.8358 8.48597L79.1798 8.48845C79.1855 9.14272 79.1863 9.79704 79.1837 10.4513C80.8321 10.4218 82.549 10.4381 84.2009 10.4464L84.2039 12.7783L79.4288 12.7785C79.2802 12.7815 79.2959 12.7576 79.1985 12.8324C79.1477 13.2321 79.1829 14.4703 79.1837 14.9451L85.0448 14.9457L85.0461 17.2683L76.1291 17.2682C76.1204 16.8234 76.1226 16.3669 76.1261 15.9215C76.1522 12.6357 76.0852 9.33833 76.1322 6.05371Z" fill="white"/>
<path id="Vector_7" d="M69.1255 5.88533C69.3758 5.85048 70.0402 5.90371 70.304 5.93474C71.792 6.10997 73.2052 6.71666 74.1552 7.90882C73.6072 8.49048 72.881 9.07044 72.2687 9.68325C71.2857 8.66279 70.3275 8.37901 68.9508 8.49439C66.7292 8.68061 65.788 11.0433 66.4629 12.9671C66.7219 13.7057 67.2686 14.3085 67.9782 14.639C69.0251 15.1385 70.1771 14.9712 71.2301 14.6027C71.1897 13.6182 71.2088 12.4855 71.2214 11.4944C71.8072 11.4618 72.6737 11.4871 73.2804 11.4862L73.9588 11.4956L73.9609 16.0638C71.4908 17.9068 67.5293 18.0691 65.0861 16.0612C64.0062 15.1599 63.3196 13.8736 63.1719 12.4748C62.8998 9.65201 64.1883 7.34082 66.8796 6.30732C67.6358 6.01706 68.3289 5.96139 69.1255 5.88533Z" fill="white"/>
<path id="Vector_8" d="M44.9661 6.05281C45.9843 6.04956 47.0025 6.05182 48.0207 6.05955L48.0224 17.2679L44.9648 17.2674C44.9513 16.8287 44.9552 16.3704 44.9591 15.9304C44.9887 12.6421 44.9144 9.33966 44.9661 6.05281Z" fill="white"/>
<path id="Vector_9" d="M61.6311 20.0792C62.7275 20.0703 64.5836 19.8718 65.4293 20.6718C66.3058 21.5008 66.2315 22.824 65.4401 23.7061C64.3706 24.5484 63.003 24.34 61.6433 24.3401C61.5846 23.0784 61.6094 21.3593 61.6311 20.0792ZM62.9144 23.3663C63.5958 23.3385 63.8848 23.4171 64.435 23.0197C64.87 22.6006 64.9364 21.889 64.5306 21.4113C64.1434 20.9559 63.3937 21.1381 62.9048 21.0391C62.9209 21.7301 62.9448 22.6848 62.9144 23.3663Z" fill="white"/>
<path id="Vector_10" d="M70.0287 20.0045C70.6097 19.9468 71.2464 20.0721 71.7309 20.4087C72.205 20.74 72.527 21.2472 72.6248 21.8172C72.7261 22.3936 72.5944 22.9867 72.2589 23.4661C71.8578 24.0288 71.2842 24.2823 70.621 24.3922C69.9874 24.4684 69.2804 24.3182 68.7693 23.9253C68.3126 23.572 68.014 23.0524 67.9388 22.4798C67.7555 21.0771 68.7019 20.1726 70.0287 20.0045ZM70.4593 23.3967C71.7179 23.1835 71.7626 21.0175 70.2242 20.9972C68.6824 21.3496 68.8406 23.3641 70.4593 23.3967Z" fill="white"/>
<path id="Vector_11" d="M74.7169 20.0796C75.5174 20.0725 76.6894 19.9968 77.4421 20.1817C78.7984 20.5149 79.0452 22.2978 77.7528 22.9924C77.9371 23.2168 78.5363 24.0635 78.6432 24.2903C78.5637 24.3664 78.4994 24.3408 78.3638 24.3428L77.3665 24.3316C77.1066 23.9824 76.8354 23.5623 76.589 23.1981C76.4065 23.2065 76.1879 23.2012 76.0024 23.2013L75.998 24.3341C75.5934 24.3477 75.1345 24.3372 74.7256 24.3371C74.6821 23.0449 74.6839 21.3745 74.7169 20.0796ZM75.9724 22.2499C76.3261 22.255 76.8728 22.3056 77.1574 22.0934C77.3487 21.8459 77.5016 21.4577 77.1774 21.2357C76.7967 20.9752 76.3848 21.0966 75.9784 21.025C75.9924 21.413 76.0128 21.8646 75.9724 22.2499Z" fill="white"/>
<path id="Vector_12" d="M49.4595 20.0738C50.4438 20.0694 52.4841 19.8171 53.0621 20.8094C53.5688 21.679 53.3233 22.4597 52.4881 22.9961C52.7397 23.352 53.1647 23.9314 53.3698 24.2964C53.2659 24.3591 53.1403 24.3411 53.0052 24.3456L52.0904 24.3307C51.9031 24.1197 51.479 23.4612 51.3012 23.199L50.6946 23.2092C50.7194 23.5231 50.7098 24.006 50.7124 24.3327L49.4613 24.3483L49.4595 20.0738ZM50.6807 22.2481C51.0053 22.2537 51.5698 22.2957 51.8401 22.1293C52.1287 21.742 52.2208 21.3189 51.6763 21.1276C51.3199 21.0026 51.0249 21.0865 50.675 21.0276C50.6894 21.432 50.7063 21.8439 50.6807 22.2481Z" fill="white"/>
<path id="Vector_13" d="M56.7735 20.0779C57.1768 20.0666 57.5992 20.0769 58.0042 20.0814C58.5922 21.45 59.2684 23.0048 59.9007 24.347C59.4483 24.338 59.0376 24.3348 58.5857 24.3491C58.5235 24.167 58.331 23.6487 58.2267 23.5099L58.1128 23.507C57.5809 23.5118 57.0142 23.5269 56.4862 23.4959C56.3859 23.8266 56.2894 24.0267 56.1438 24.3373C55.724 24.3363 55.3042 24.338 54.8844 24.3424L56.0847 21.5986C56.2694 21.1776 56.5666 20.4444 56.7735 20.0779ZM57.461 22.6005L57.9029 22.6009L57.3706 21.3194C57.2159 21.7082 57.0212 22.2426 56.8435 22.6093L57.461 22.6005Z" fill="white"/>
<path id="Vector_14" d="M82.0475 20.0815C82.4268 20.064 82.8662 20.0766 83.2503 20.0795C83.485 20.4544 83.6714 20.9684 83.864 21.3725C84.3107 22.3094 84.7122 23.4089 85.1711 24.3275C84.7626 24.3449 84.3024 24.3374 83.89 24.3394C83.7796 24.1272 83.6206 23.4953 83.4185 23.5049C82.8701 23.5166 82.3212 23.5156 81.7732 23.5019C81.6776 23.778 81.5516 24.0624 81.4377 24.3328C81.0166 24.3328 80.596 24.3367 80.1753 24.3444C80.7477 22.9717 81.4182 21.4271 82.0475 20.0815ZM82.7475 22.6017L83.1839 22.597C83.0048 22.1734 82.8314 21.7472 82.6637 21.3189L82.1287 22.6085L82.7475 22.6017Z" fill="white"/>
<path id="Vector_15" d="M22.4241 20.0804C22.8069 20.0658 23.236 20.0763 23.6227 20.0782C24.2664 21.3711 24.9408 23.0023 25.5285 24.3435C25.0921 24.3373 24.6555 24.337 24.219 24.3426C24.1482 24.1375 24.0038 23.6651 23.8696 23.5107C23.8549 23.4937 23.7709 23.5056 23.738 23.5075C23.279 23.5118 22.5723 23.5382 22.1368 23.4818C22.0601 23.7298 21.9096 24.0699 21.8086 24.3175C21.4533 24.3494 20.8876 24.3341 20.5161 24.3342C20.9572 23.495 21.2883 22.5019 21.7065 21.6427C21.9532 21.1358 22.1396 20.5687 22.4241 20.0804ZM22.9783 22.6021C23.159 22.6037 23.3696 22.6008 23.5473 22.6116C23.4691 22.4366 23.0606 21.3866 23.0047 21.3253C22.8598 21.6978 22.654 22.2656 22.4791 22.6061L22.9783 22.6021Z" fill="white"/>
<path id="Vector_16" d="M43.8855 20.0819C44.9307 20.0402 46.2127 20.0756 47.2765 20.0756C47.2665 20.391 47.2743 20.7131 47.2782 21.0291C46.579 21.0105 45.835 21.0208 45.1319 21.0202C45.1536 21.3143 45.161 21.4204 45.1193 21.7099L47.0127 21.6852C47.0514 22.0104 47.0384 22.3113 47.0318 22.6375C46.4308 22.643 45.8302 22.6445 45.2292 22.6418L45.1858 22.6455C45.1232 22.733 45.1397 23.1785 45.1184 23.3765C45.8646 23.383 46.6107 23.3762 47.3565 23.3563C47.3669 23.674 47.3647 24.0128 47.3686 24.3323C46.2592 24.363 45.0102 24.3367 43.889 24.3388C43.8803 22.9663 43.8486 21.4441 43.8855 20.0819Z" fill="white"/>
<path id="Vector_17" d="M33.1604 20.0774C34.3038 20.0705 35.4472 20.072 36.5906 20.082L36.5713 21.0251C35.8571 21.0087 35.0938 21.021 34.3758 21.02C34.4067 21.3137 34.4124 21.4121 34.384 21.7046L36.2855 21.6891L36.2899 22.6336C35.7014 22.6501 35.0504 22.6395 34.4572 22.6417C34.4246 22.648 34.4187 22.6614 34.3898 22.6859C34.4001 22.947 34.4042 23.1157 34.383 23.3751C35.1293 23.3792 35.8539 23.3858 36.5998 23.3552L36.6167 24.3336C35.4667 24.3269 34.3167 24.3308 33.1669 24.3453C33.1252 22.9902 33.1604 21.4467 33.1604 20.0774Z" fill="white"/>
<path id="Vector_18" d="M29.0967 20.0043C30.0746 19.9199 30.5145 20.1899 31.244 20.7471C31.0568 20.9613 30.6548 21.3027 30.4367 21.4882C30.0467 21.151 29.6525 20.9108 29.1182 21.0494C28.8284 21.1235 28.5807 21.3114 28.4311 21.5705C28.2669 21.8498 28.2161 22.2208 28.2976 22.5342C28.3779 22.8403 28.5786 23.1011 28.8542 23.2569C29.4615 23.608 29.893 23.2143 30.4058 22.9818C30.4821 22.9472 30.6088 23.057 30.6843 23.1091C30.9097 23.3304 30.9897 23.413 31.2624 23.5743C30.3235 24.483 28.9829 24.7734 27.8864 23.9445C27.4218 23.5899 27.1174 23.0651 27.0403 22.4858C26.8538 21.09 27.7686 20.1768 29.0967 20.0043Z" fill="white"/>
<path id="Vector_19" d="M38.714 20.0778L39.9637 20.0742C39.9051 20.9685 39.9515 22.4201 39.9541 23.3496C40.6395 23.3513 41.325 23.3495 42.0104 23.3441C42.0252 23.6406 42.0154 24.0142 42.0149 24.3171C41.6433 24.4177 39.3106 24.3351 38.7212 24.3434C38.6832 22.9757 38.7136 21.4581 38.714 20.0778Z" fill="white"/>
<path id="Vector_20" d="M88.9998 6.09242C88.8572 6.58833 88.6347 7.0875 88.0972 7.24039C87.514 7.40632 86.7504 7.03222 86.5866 6.43579C86.4975 6.10828 86.5436 5.75887 86.7139 5.46548C86.8791 5.17878 87.1515 4.9694 87.4709 4.88339C88.3535 4.64993 88.8055 5.29595 88.9998 6.05166V6.09242ZM87.849 7.06547C88.3996 7.01127 88.8042 6.52384 88.756 5.97252C88.7077 5.4212 88.2249 5.01134 87.673 5.05349C87.3106 5.08113 86.9912 5.30138 86.8365 5.63019C86.6818 5.959 86.7152 6.34566 86.9247 6.64261C87.1346 6.93961 87.4874 7.10106 87.849 7.06547Z" fill="white"/>
<path id="Vector_21" d="M87.2146 5.43899C87.7978 5.43986 88.786 5.40835 88.1298 6.30665C88.0794 6.37557 88.2863 6.50052 88.2985 6.65423L88.1933 6.74371C87.8613 6.67839 87.8608 6.30465 87.5918 6.38105C87.5758 6.47427 87.5606 6.56757 87.5453 6.66101C87.4206 6.72416 87.3224 6.7169 87.2194 6.6265L87.2146 5.43899ZM87.9595 6.05732C87.9743 5.87054 87.9956 5.91725 87.9204 5.77258C87.7826 5.70152 87.7331 5.69996 87.5775 5.67966C87.5688 5.86276 87.538 5.91282 87.6144 6.06167C87.7326 6.10361 87.8361 6.07666 87.9595 6.05732Z" fill="white"/>
</g>
</svg>
