<svg preserveAspectRatio="none" overflow="visible" style="display: block;" width="124" height="22.2765" viewBox="0 0 124 22.2765" fill="none" xmlns="http://www.w3.org/2000/svg">
<g id="Logo">
<path id="Vector" d="M12.7553 19.0761C13.484 19.8079 13.484 20.9952 12.7553 21.7276C12.0265 22.4594 10.8453 22.4594 10.1159 21.7276C9.38774 20.9952 9.38774 19.8079 10.1159 19.0761L11.4356 17.7497L12.7553 19.0761ZM12.8682 11.7404L20.3539 4.21592L22.3798 6.25161L15.7335 12.9332H22.8718V15.8118H0V12.9332H7.13827L0.49131 6.25161L2.51728 4.21592L10.0029 11.7404V0H12.8682V11.7404Z" fill="white"/>
<path id="Vector_2" d="M38.7047 6.89169C39.1468 6.89169 39.5804 6.95424 40.0049 7.07813C40.4385 7.19292 40.8321 7.36539 41.1861 7.59556C41.5487 7.82512 41.8584 8.09962 42.1153 8.41846L40.8679 9.79826C40.6553 9.58631 40.4343 9.40473 40.2041 9.25411C39.983 9.095 39.7444 8.97536 39.4875 8.8958C39.2397 8.80714 38.9743 8.7628 38.6907 8.7628C38.3105 8.7628 37.9522 8.83386 37.6164 8.97536C37.289 9.11686 37.0012 9.31606 36.7534 9.57234C36.5056 9.82012 36.307 10.1256 36.1564 10.4888C36.0149 10.8422 35.9439 11.2364 35.9439 11.67C35.9445 12.1121 36.0149 12.5147 36.1564 12.8773C36.2979 13.2308 36.4971 13.5362 36.7534 13.7925C37.0103 14.0403 37.3158 14.2352 37.6698 14.3767C38.0324 14.5091 38.4302 14.5759 38.8638 14.5759C39.1468 14.5759 39.4213 14.5359 39.6867 14.4563C39.9521 14.3767 40.1956 14.2662 40.4167 14.1247C40.6462 13.9826 40.8503 13.8192 41.027 13.6334L41.9957 15.1863C41.7831 15.425 41.4958 15.6418 41.1327 15.8367C40.7792 16.031 40.3814 16.1865 39.9387 16.3013C39.4966 16.4076 39.0496 16.4604 38.5984 16.4604C37.9176 16.4604 37.289 16.345 36.7139 16.1149C36.1479 15.8762 35.6523 15.5446 35.2278 15.1201C34.8118 14.6865 34.4894 14.1775 34.2592 13.5933C34.029 13.0006 33.9136 12.355 33.9136 11.656C33.9136 10.9752 34.0333 10.3467 34.2719 9.77154C34.5106 9.18731 34.8471 8.68325 35.2807 8.25813C35.7137 7.82512 36.2232 7.48867 36.8068 7.25C37.3911 7.01133 38.0233 6.89169 38.7047 6.89169ZM53.5308 9.1612C54.1594 9.1612 54.7339 9.27658 55.2562 9.50615C55.7779 9.73632 56.1854 10.0545 56.4775 10.4614L55.4414 11.7088C55.3181 11.5412 55.1633 11.3906 54.9774 11.2582C54.7922 11.1167 54.5882 11.0062 54.3671 10.926C54.1545 10.8465 53.9335 10.807 53.7033 10.807C53.3408 10.807 53.0177 10.8951 52.7347 11.0718C52.4602 11.24 52.2434 11.475 52.0842 11.7756C51.9251 12.0763 51.8456 12.4212 51.8456 12.8105C51.8456 13.1907 51.9251 13.5314 52.0842 13.8326C52.2525 14.1241 52.4784 14.3634 52.7608 14.5492C53.0444 14.7266 53.3632 14.8146 53.7167 14.8146C53.9468 14.8146 54.1637 14.783 54.3671 14.7211C54.5705 14.6506 54.7606 14.5492 54.938 14.4162C55.1232 14.2838 55.2914 14.1247 55.4414 13.9389L56.4635 15.1863C56.1629 15.5665 55.7475 15.8762 55.2167 16.1149C54.6853 16.345 54.1236 16.4604 53.5308 16.4604C52.8586 16.4604 52.2573 16.3007 51.7259 15.9819C51.1957 15.6636 50.7749 15.23 50.4658 14.6816C50.1645 14.1332 50.0139 13.5095 50.0139 12.8105C50.0145 12.1206 50.1645 11.5011 50.4658 10.9527C50.7749 10.3952 51.1957 9.95677 51.7259 9.63854C52.2567 9.32031 52.8586 9.1612 53.5308 9.1612ZM69.5182 6.89169C69.9603 6.89169 70.3939 6.95424 70.8184 7.07813C71.252 7.19292 71.6456 7.36539 71.9996 7.59556C72.3622 7.82512 72.6719 8.09962 72.9282 8.41846L71.6814 9.79826C71.4688 9.58631 71.2478 9.40473 71.0176 9.25411C70.7966 9.095 70.5573 8.97536 70.301 8.8958C70.0532 8.80714 69.7872 8.7628 69.5042 8.7628C69.124 8.7628 68.7657 8.83386 68.4299 8.97536C68.1025 9.11686 67.8147 9.31606 67.5669 9.57234C67.3191 9.82012 67.1205 10.1256 66.9699 10.4888C66.829 10.8422 66.7574 11.2364 66.7574 11.67C66.7574 12.1121 66.829 12.5147 66.9699 12.8773C67.1114 13.2308 67.3106 13.5362 67.5669 13.7925C67.8232 14.0403 68.1287 14.2352 68.4821 14.3767C68.8453 14.5091 69.2437 14.5759 69.6773 14.5759C69.9597 14.5759 70.2348 14.5359 70.5002 14.4563C70.7656 14.3767 71.0091 14.2662 71.2302 14.1247C71.4597 13.9826 71.6632 13.8192 71.8405 13.6334L72.8092 15.1863C72.5966 15.425 72.3094 15.6418 71.9462 15.8367C71.5921 16.031 71.1943 16.1859 70.7522 16.3013C70.3101 16.4076 69.8631 16.4604 69.4119 16.4604C68.7305 16.4604 68.1025 16.345 67.5274 16.1149C66.9614 15.8762 66.4659 15.5446 66.0414 15.1201C65.6253 14.6865 65.3017 14.1775 65.0715 13.5933C64.8419 13.0006 64.7271 12.355 64.7271 11.656C64.7271 10.9752 64.8462 10.3467 65.0855 9.77154C65.3241 9.18731 65.66 8.68325 66.0936 8.25813C66.5272 7.82512 67.0367 7.48867 67.6203 7.25C68.204 7.01133 68.8368 6.89169 69.5182 6.89169ZM76.6637 9.1612C77.0087 9.1612 77.3227 9.21403 77.6057 9.32031C77.8978 9.41748 78.1498 9.55473 78.3618 9.73146C78.5464 9.87903 78.7043 10.046 78.8397 10.2301V9.30756H80.7108V16.3274H78.8136V15.4067C78.6685 15.5871 78.4972 15.7535 78.2962 15.9023C78.066 16.0705 77.8049 16.2078 77.5128 16.314C77.2206 16.4112 76.9109 16.4604 76.5842 16.4604C76 16.4604 75.4734 16.3007 75.0046 15.9819C74.5357 15.6636 74.1641 15.23 73.8896 14.6816C73.6151 14.1332 73.4784 13.5053 73.4784 12.7977C73.4784 12.0896 73.6151 11.4659 73.8896 10.926C74.1726 10.3776 74.5534 9.94826 75.0313 9.63854C75.5086 9.32031 76.0534 9.1612 76.6637 9.1612ZM101.022 9.1612C101.367 9.1612 101.682 9.21403 101.964 9.32031C102.256 9.41748 102.509 9.55473 102.721 9.73146C102.905 9.87903 103.063 10.046 103.199 10.2301V9.30756H105.07V16.3274H103.173V15.4067C103.028 15.5871 102.856 15.7535 102.655 15.9023C102.424 16.0705 102.164 16.2078 101.872 16.314C101.58 16.4112 101.271 16.4604 100.943 16.4604C100.359 16.4604 99.8325 16.3007 99.363 15.9819C98.8948 15.6636 98.5231 15.23 98.2486 14.6816C97.9747 14.1332 97.8375 13.5053 97.8375 12.7977C97.8375 12.0896 97.9747 11.4659 98.2486 10.926C98.5316 10.3776 98.9124 9.94826 99.3904 9.63854C99.8677 9.32031 100.412 9.1612 101.022 9.1612ZM121.161 9.1612C121.524 9.1612 121.878 9.20553 122.222 9.29359C122.568 9.38226 122.886 9.5104 123.179 9.67862C123.479 9.83774 123.74 10.0278 123.96 10.2489L122.953 11.3639C122.793 11.2139 122.612 11.0766 122.408 10.9527C122.214 10.8289 122.01 10.7311 121.798 10.6606C121.586 10.5896 121.395 10.5544 121.227 10.5544C121.077 10.5544 120.939 10.5677 120.816 10.5944C120.701 10.6212 120.603 10.6606 120.523 10.7141C120.444 10.7669 120.382 10.838 120.338 10.926C120.303 11.0056 120.285 11.0943 120.285 11.1914C120.285 11.2886 120.307 11.3815 120.351 11.4702C120.404 11.5582 120.475 11.6341 120.564 11.6961C120.661 11.7489 120.803 11.8109 120.989 11.8813C121.183 11.9524 121.444 12.0319 121.771 12.12C122.196 12.2354 122.554 12.3641 122.846 12.5056C123.147 12.6471 123.386 12.8111 123.562 12.9963C123.713 13.1555 123.824 13.337 123.895 13.5405C123.965 13.7439 124 13.9698 124 14.2176C124 14.6506 123.876 15.0399 123.629 15.3855C123.391 15.7213 123.059 15.9867 122.634 16.1811C122.209 16.3669 121.731 16.4604 121.2 16.4604C120.546 16.4604 119.962 16.3535 119.449 16.1416C118.944 15.9205 118.538 15.6199 118.228 15.2397L119.396 14.2304C119.67 14.5225 119.975 14.7351 120.311 14.8681C120.647 14.9913 120.984 15.0533 121.32 15.0533C121.452 15.0533 121.572 15.0399 121.679 15.0132C121.793 14.978 121.89 14.9336 121.971 14.8808C122.05 14.8189 122.108 14.7484 122.143 14.6689C122.186 14.5802 122.209 14.4873 122.209 14.3901C122.209 14.1958 122.13 14.0403 121.971 13.9255C121.883 13.8812 121.745 13.8283 121.559 13.7664C121.373 13.6953 121.134 13.62 120.842 13.5405C120.391 13.4251 120.007 13.2927 119.688 13.1421C119.378 12.983 119.13 12.8062 118.944 12.6113C118.785 12.4255 118.661 12.2269 118.573 12.0143C118.494 11.7933 118.454 11.5497 118.454 11.2843C118.454 10.9661 118.525 10.6782 118.666 10.422C118.807 10.1566 119.002 9.93065 119.249 9.74482C119.506 9.55959 119.798 9.41748 120.126 9.32031C120.453 9.21403 120.798 9.1612 121.161 9.1612ZM108.578 10.1317C108.72 9.95555 108.892 9.79948 109.096 9.66526C109.326 9.50615 109.579 9.38226 109.853 9.29359C110.127 9.20553 110.411 9.1612 110.702 9.1612C111.312 9.1612 111.856 9.32031 112.334 9.63854C112.812 9.94826 113.188 10.3776 113.462 10.926C113.745 11.475 113.887 12.1024 113.887 12.8105C113.887 13.518 113.75 14.1466 113.476 14.695C113.202 15.2434 112.825 15.677 112.348 15.9958C111.879 16.3055 111.343 16.4598 110.742 16.4598C110.432 16.4598 110.131 16.4161 109.839 16.3274C109.548 16.2394 109.282 16.1191 109.044 15.9685C108.838 15.8318 108.663 15.6806 108.516 15.5173L108.473 16.3007H106.694V6.50666H108.578V10.1317ZM45.0413 16.3274H43.1568V6.50666H45.0413V16.3274ZM48.7319 16.3274H46.848V9.30756H48.7319V16.3274ZM59.2899 12.0064L61.9578 9.30695H64.4393L61.1799 12.3599L64.4265 16.3274H62.157L59.9318 13.5289L59.2899 14.1296V16.3274H57.4061V6.50666H59.2899V12.0064ZM86.3691 9.1612C86.8999 9.1612 87.3426 9.26687 87.6967 9.47943C88.0592 9.69198 88.3295 10.0151 88.5062 10.4487C88.6921 10.8732 88.785 11.3997 88.785 12.0277V16.3274H86.8999V12.1734C86.8999 11.8552 86.8562 11.5898 86.7675 11.3779C86.6794 11.1653 86.5422 11.0104 86.3564 10.9127C86.1796 10.8064 85.958 10.7621 85.6926 10.7797C85.4806 10.7797 85.2814 10.8155 85.0956 10.8866C84.9189 10.9485 84.7634 11.0414 84.631 11.1653C84.5071 11.2886 84.4057 11.4301 84.3261 11.5892C84.2551 11.7489 84.2192 11.9214 84.2192 12.1072V16.3274H82.3354V9.30756H84.1397L84.1737 10.2276C84.2241 10.162 84.2794 10.0989 84.3389 10.0369C84.5952 9.77154 84.9006 9.55898 85.2547 9.39987C85.6088 9.24075 85.9798 9.1612 86.3691 9.1612ZM94.36 9.1612C94.8908 9.1612 95.333 9.26687 95.687 9.47943C96.0496 9.69198 96.3192 10.0151 96.4966 10.4487C96.6818 10.8732 96.7747 11.3997 96.7747 12.0277V16.3274H94.8908V12.1734C94.8908 11.8552 94.8465 11.5898 94.7578 11.3779C94.6698 11.1653 94.5325 11.0104 94.3467 10.9127C94.1694 10.8064 93.9483 10.7621 93.6829 10.7797C93.4703 10.7797 93.2711 10.8155 93.0859 10.8866C92.9086 10.9485 92.7537 11.0414 92.6207 11.1653C92.4974 11.2886 92.3954 11.4301 92.3159 11.5892C92.2454 11.7489 92.2096 11.9214 92.2096 12.1072V16.3274H90.3257V9.30756H92.13L92.1634 10.2276C92.2144 10.162 92.2697 10.0989 92.3286 10.0369C92.5855 9.77154 92.891 9.55898 93.245 9.39987C93.5985 9.24075 93.9708 9.1612 94.36 9.1612ZM117.091 16.3274H115.207V9.30756H117.091V16.3274ZM110.29 10.7797C109.936 10.7797 109.627 10.8641 109.362 11.0323C109.096 11.2005 108.888 11.4392 108.737 11.7483C108.587 12.058 108.512 12.4121 108.512 12.8105C108.512 13.2174 108.587 13.5757 108.737 13.8854C108.888 14.1867 109.096 14.4253 109.362 14.6021C109.627 14.7703 109.936 14.8541 110.29 14.8541C110.644 14.8541 110.95 14.7703 111.206 14.6021C111.472 14.4253 111.68 14.1867 111.83 13.8854C111.981 13.5757 112.056 13.2174 112.056 12.8105C112.056 12.4121 111.981 12.058 111.83 11.7483C111.689 11.4392 111.484 11.2005 111.219 11.0323C110.954 10.8641 110.644 10.7797 110.29 10.7797ZM77.1016 10.7797C76.7561 10.7797 76.4512 10.8689 76.1858 11.0457C75.9295 11.2139 75.7261 11.4477 75.5755 11.7483C75.4248 12.0495 75.3495 12.3994 75.3495 12.7977C75.3495 13.2046 75.4248 13.5623 75.5755 13.8721C75.7261 14.1727 75.9295 14.4077 76.1858 14.5759C76.4512 14.7436 76.7561 14.828 77.1016 14.828C77.4551 14.828 77.7648 14.7436 78.0302 14.5759C78.2956 14.4077 78.499 14.1727 78.6405 13.8721C78.7911 13.5623 78.8664 13.2046 78.8664 12.7977C78.8664 12.3994 78.7911 12.0495 78.6405 11.7483C78.499 11.4477 78.2956 11.2139 78.0302 11.0457C77.7648 10.8689 77.4551 10.7797 77.1016 10.7797ZM101.461 10.7797C101.116 10.7797 100.81 10.8689 100.544 11.0457C100.288 11.2139 100.085 11.4483 99.9345 11.7483C99.7839 12.0495 99.7086 12.3994 99.7086 12.7977C99.7086 13.2046 99.7845 13.5623 99.9345 13.8721C100.085 14.1727 100.288 14.4077 100.544 14.5759C100.81 14.7436 101.116 14.828 101.461 14.828C101.814 14.828 102.124 14.7436 102.389 14.5759C102.655 14.4077 102.859 14.1727 103 13.8721C103.15 13.5623 103.226 13.2046 103.226 12.7977C103.226 12.3994 103.15 12.0495 103 11.7483C102.859 11.4477 102.655 11.2139 102.389 11.0457C102.124 10.8689 101.814 10.7797 101.461 10.7797ZM47.7766 5.81615C48.1392 5.81676 48.4228 5.90968 48.6256 6.09551C48.8291 6.27285 48.9311 6.52002 48.9311 6.83825C48.9311 7.14797 48.8248 7.39576 48.6123 7.58159C48.4094 7.76743 48.1307 7.86035 47.7766 7.86035C47.414 7.86035 47.1304 7.77229 46.9276 7.59556C46.7241 7.41823 46.6221 7.16559 46.6221 6.83825C46.6221 6.53763 46.7241 6.2941 46.9276 6.10888C47.1395 5.91393 47.4226 5.81615 47.7766 5.81615ZM116.136 5.81615C116.498 5.81676 116.781 5.90968 116.985 6.09551C117.188 6.27285 117.29 6.52002 117.29 6.83825C117.29 7.14797 117.184 7.39576 116.971 7.58159C116.768 7.76743 116.49 7.86035 116.136 7.86035C115.772 7.86035 115.489 7.77229 115.286 7.59556C115.083 7.41823 114.981 7.16559 114.981 6.83825C114.981 6.53763 115.083 6.2941 115.286 6.10888C115.499 5.91393 115.782 5.81615 116.136 5.81615Z" fill="white"/>
</g>
</svg>
