<svg width="74" height="34" viewBox="0 0 74 34" fill="none" xmlns="http://www.w3.org/2000/svg">
<g clip-path="url(#clip0_2947_4075)">
<path d="M38.6361 10.4297C38.8992 10.4579 39.5763 10.4411 39.8654 10.4408L42.5359 10.4386C44.3968 10.4378 45.8378 10.3727 47.3409 11.7008C48.0386 12.3171 48.4223 13.5894 48.4574 14.4753C48.4928 15.3633 48.0639 16.7091 47.4063 17.3547C46.2529 18.4873 45.1689 18.68 43.6127 18.7118C42.8767 18.7082 42.1396 18.7269 41.4053 18.7193C41.4346 19.7805 41.3913 20.8872 41.4057 21.952C41.4119 22.4097 41.3822 22.9457 41.4198 23.3963C40.5353 23.4354 39.4936 23.3958 38.5939 23.401C38.621 22.3393 38.5967 21.1717 38.5971 20.1034L38.5957 13.5463C38.5957 13.0568 38.5433 10.7226 38.6361 10.4297ZM41.3851 16.3332C41.8252 16.3567 42.3043 16.3628 42.7473 16.3605C43.5289 16.3565 44.5026 16.4407 45.1285 15.9028C45.4829 15.4957 45.7041 14.9459 45.6473 14.4132C45.4089 12.1701 42.8807 12.9799 41.4234 12.7991C41.4072 13.5477 41.4025 14.2965 41.409 15.0453C41.4097 15.3878 41.427 16.0055 41.3851 16.3332Z" fill="black"/>
<path d="M31.2011 10.2573C32.3869 10.2124 33.577 10.4009 34.5858 11.0478C35.4172 11.581 35.7988 11.9481 36.2929 12.7859C36.4136 12.9902 36.586 13.2494 36.6329 13.4866C36.5086 13.6677 34.784 14.3155 34.4074 14.4885C34.1975 14.0097 33.9439 13.7592 33.5674 13.3556C32.7798 12.5115 30.9599 12.3535 30.0574 13.0834C29.6173 13.4392 29.5691 14.5576 30.0832 14.9154C30.7504 15.38 31.7808 15.5281 32.5409 15.849C33.7367 16.2478 34.6904 16.4014 35.6366 17.3144C36.2962 17.9439 36.6673 18.8059 36.6655 19.7054C36.668 20.6795 36.2745 21.6149 35.5712 22.3072C34.4678 23.378 33.1399 23.6153 31.6407 23.6118C30.7392 23.5489 29.6506 23.344 28.8717 22.8723C27.8167 22.2333 26.7722 21.1371 26.4847 19.9407C27.25 19.6047 27.944 19.3286 28.7289 18.9654C29.0176 19.6309 29.309 19.9356 29.8419 20.4605C30.8155 21.4194 33.9546 21.7927 33.8842 19.813C33.8467 18.7583 32.8245 18.659 32.0262 18.3899C30.7637 17.9643 29.2396 17.64 28.2115 16.7769C27.4014 16.1094 27.0819 15.4071 26.9968 14.3797C26.9139 13.5652 27.2141 12.2841 27.808 11.6855C28.8479 10.6371 29.7269 10.3483 31.2011 10.2573Z" fill="black"/>
<path d="M58.1644 13.7451C58.2053 13.7414 58.2465 13.7383 58.2873 13.7355C59.5136 13.6521 60.8928 13.7908 61.8709 14.5936C63.2628 15.7358 63.1063 16.9253 63.1063 18.521L63.1042 21.612C63.1027 22.1529 63.0785 22.8668 63.1139 23.3957C62.3067 23.4181 61.4081 23.408 60.5987 23.3887C60.6334 23.1284 60.6236 22.8095 60.6229 22.5426C60.3747 22.7162 60.0968 22.9366 59.8475 23.0875C58.9207 23.6479 57.4805 23.7344 56.4416 23.4736C55.4343 23.2207 55.0801 22.9557 54.5584 22.1292C54.4243 21.8229 54.3362 21.4993 54.2968 21.1685C53.9192 17.9389 58.1182 17.6555 60.4484 17.4017C60.4018 16.8061 60.2475 16.3044 59.6199 16.0407C59.1314 15.8355 58.378 15.8911 57.8855 16.0734C57.277 16.2986 57.0093 16.7258 56.7668 17.279C56.1089 17.0288 55.2482 16.4878 54.6075 16.3002C55.2084 14.643 56.4575 14.0019 58.1644 13.7451ZM57.582 21.6156C59.2936 22.0395 60.319 20.9637 60.4578 19.3727L60.06 19.4036C59.3142 19.5904 57.6156 19.5903 57.174 20.2619C56.8568 20.7446 57.1119 21.2865 57.582 21.6156Z" fill="black"/>
<path d="M50.0465 10.2456C50.7749 10.2876 51.912 10.2461 52.6806 10.2524L52.6849 19.4793L52.6903 22.0336C52.6914 22.3293 52.7077 23.1491 52.6639 23.4097C51.8434 23.4053 50.8233 23.3737 50.019 23.4074C50.0515 20.4275 50.0237 17.3907 50.0226 14.4066L50.0194 11.873C50.0187 11.3651 50.0017 10.7413 50.0465 10.2456Z" fill="black"/>
<path d="M10.4801 0H11.404C12.0867 0.400637 12.671 1.12604 13.2486 1.69604L15.7697 4.16922L18.1673 6.48865C18.7683 7.08119 19.6339 7.68643 19.02 8.72184C18.5114 9.47087 17.689 9.96774 17.0844 10.626C15.9641 11.8454 14.8884 12.6376 13.8281 13.9456C12.9356 15.0465 15.1282 16.4141 15.7299 17.1913C16.0387 17.5902 16.7305 18.0326 17.0465 18.4845C17.9638 19.1276 18.571 19.9886 19.3809 20.7571C19.9898 21.3349 20.8365 21.9707 21.3106 22.6654C21.5341 22.9928 21.5269 23.7498 21.285 24.069C20.788 24.6917 20.0787 25.2153 19.5176 25.7749C18.9882 26.3029 18.4826 26.9488 17.9121 27.4585C17.5949 27.7419 17.2982 27.9929 16.9666 28.2569C16.6595 28.5591 16.7529 28.5883 16.3458 28.9158C16.3407 28.729 16.8415 27.7266 16.9234 27.4553C17.1682 26.6442 17.2336 25.823 17.1378 24.9954C16.9674 23.5235 16.3375 22.5164 15.2604 21.5199C14.9032 21.1895 14.5482 20.8135 14.1551 20.5064C13.7164 19.9769 13.3194 19.7379 12.8646 19.2945C12.3398 18.7829 11.8111 18.2581 11.285 17.7449L8.56556 15.0738C8.37619 14.8868 8.20864 14.6861 8.02357 14.498C7.85751 14.3293 7.57842 14.1662 7.41542 13.9993C6.30332 12.8552 5.09902 11.7787 4.02103 10.6038C3.30732 9.82603 1.91393 9.12865 2.3726 7.8893C2.6362 7.17706 3.22013 6.80961 3.74982 6.30693L5.75888 4.37164C5.92422 4.21157 6.04703 3.94939 6.1795 3.83341C6.74364 3.33948 7.28704 2.83771 7.83998 2.33026C8.58714 1.64459 9.55723 0.418651 10.4801 0Z" fill="black"/>
<path d="M0 23.3044C0.097095 23.1393 0.499023 22.4888 0.621488 22.359C1.1273 21.8504 1.70581 21.4101 2.24311 20.9341C2.33174 20.8556 2.437 20.7463 2.51468 20.6603C2.84431 20.2954 3.22355 19.9336 3.56403 19.5829C3.98263 19.1517 4.34992 18.8205 5.00038 18.8218C5.19232 18.8222 5.47766 18.8704 5.65464 18.9743C6.25817 19.4462 6.82032 20.0172 7.34237 20.5725C7.5411 20.7886 7.81535 20.9822 8.0101 21.1969C8.40666 21.634 8.79545 22.0235 9.24989 22.4049C9.413 22.5419 9.74656 22.9115 9.9162 23.0662C10.427 23.5319 10.8848 23.0715 11.4362 22.7135C11.7294 22.5127 11.9537 22.3617 12.2268 22.0939C12.8226 21.5098 13.563 21.0825 14.1551 20.5062C14.5482 20.8133 14.9031 21.1893 15.2603 21.5197C16.3375 22.5162 16.9674 23.5233 17.1378 24.9952C17.2336 25.8228 17.1682 26.644 16.9234 27.4551C16.8415 27.7264 16.3407 28.7288 16.3458 28.9156C16.0293 29.4907 15.1568 30.0758 14.6638 30.5565L11.7613 33.4241C11.2751 33.906 10.3039 34.2081 9.71637 33.7409C9.04842 33.2098 8.41403 32.4919 7.79067 31.8944L2.47007 26.7435L2.28237 26.564C2.16173 26.4585 2.02939 26.3089 1.91762 26.1883C1.24798 25.466 0.473098 24.9808 0 24.11V23.3044Z" fill="#838383"/>
<path d="M67.5857 15.0446C68.0684 14.4032 68.2025 14.1112 69.0469 13.883C70.4503 13.5038 72.0159 13.7021 73.0403 14.7721C73.7304 15.4935 73.7163 15.8123 74 16.6985V23.3972C73.1078 23.4096 72.2154 23.4108 71.3232 23.4007C71.3272 23.27 71.3265 23.1333 71.3272 23.0018L71.3308 19.5157C71.3312 18.8199 71.3774 18.0357 71.2625 17.3607C70.937 15.6015 67.9141 15.6292 67.7945 17.5131C67.7251 18.608 67.7472 19.6969 67.7519 20.7955C67.7559 21.6607 67.7313 22.5373 67.7544 23.4012L65.0275 23.3973C65.09 22.4567 65.0383 20.8295 65.0383 19.8384C65.0376 17.8761 65.0654 15.8573 65.0343 13.9029C65.7339 13.9036 66.9609 13.859 67.6081 13.9425C67.5788 14.2314 67.5886 14.7386 67.5857 15.0446Z" fill="black"/>
</g>
<defs>
<clipPath id="clip0_2947_4075">
<rect width="74" height="34" fill="white"/>
</clipPath>
</defs>
</svg>
